<svg width="100" height="32" xmlns="http://www.w3.org/2000/svg"><path d="M6.785 9.966l.128.297h.084l.128-.297L9.415 0h4.495L9.245 17.897V31.17h-4.58V17.897L0 0h4.495l2.29 9.966zM24.81 25.53c-.127 2.248-.806 3.817-2.29 5.047-.763.636-1.823.933-3.223.933-2.757 0-4.114-1.527-4.792-3.054a8.498 8.498 0 0 1-.679-3.053V13.74c.128-2.247.806-3.901 2.29-5.173.721-.637 1.782-.933 3.181-.933 2.757 0 4.156 1.526 4.835 3.01a8.24 8.24 0 0 1 .678 2.97V25.53zM20.78 13.74c.043-.89-.127-1.526-.551-2.035-.212-.212-.551-.34-.933-.34-.806 0-1.145.552-1.315 1.188-.127.34-.17.721-.127 1.187v11.663c-.042.89.17 1.527.551 1.993.212.212.51.34.891.34.806 0 1.187-.51 1.357-1.146.127-.339.17-.72.127-1.187V13.74zm13.36.17c0-.551 0-1.23-.17-1.781-.213-.509-.552-.933-1.23-.933-.552 0-.891.424-1.06.933-.213.509-.255 1.23-.255 1.781 0 .721.382 1.484.933 2.163.509.678 1.187 1.357 1.866 1.993.89.89 1.95 1.909 2.672 3.054.72 1.187 1.272 2.502 1.272 4.028 0 1.485-.34 3.054-1.188 4.241-.89 1.23-2.247 2.12-4.283 2.12-2.587 0-4.113-1.187-4.962-2.629-.848-1.441-1.017-3.223-1.017-4.453h3.986c0 .637.042 1.527.34 2.206.296.72.763 1.314 1.653 1.314 1.23 0 1.485-1.441 1.485-2.799 0-1.4-1.358-2.799-2.672-4.113-1.018-.976-1.993-1.866-2.757-3.011-.763-1.145-1.314-2.418-1.314-4.114 0-1.357.254-2.926 1.06-4.156.805-1.187 2.12-2.078 4.156-2.12 2.502-.043 3.901.89 4.622 2.12.721 1.23.849 2.841.849 4.156h-3.987zm17.175 11.62c-.128 2.248-.806 3.817-2.29 5.047-.764.636-1.824.933-3.223.933-2.757 0-4.114-1.527-4.793-3.054a8.498 8.498 0 0 1-.678-3.053V13.74c.127-2.247.806-3.901 2.29-5.173.72-.637 1.781-.933 3.18-.933 2.757 0 4.157 1.526 4.835 3.01a8.24 8.24 0 0 1 .679 2.97V25.53zm-4.03-11.79c.043-.89-.126-1.526-.55-2.035-.213-.212-.552-.34-.933-.34-.806 0-1.146.552-1.315 1.188-.127.34-.17.721-.127 1.187v11.663c-.043.89.17 1.527.55 1.993.213.212.51.34.892.34.805 0 1.187-.51 1.357-1.146.127-.339.17-.72.127-1.187V13.74zM63.74 31.17l-1.653-11.068-.213-1.315h-.17l-.211 1.315-1.654 11.068h-3.562L52.84 7.973h3.902L58.1 20.102l.17 1.314h.254l.212-1.314 1.781-12.13h2.545l1.781 12.13.212 1.314h.255l.17-1.314 1.356-12.13h3.902L67.303 31.17H63.74zM72.858 0h4.284v4.283h-4.284V0zm0 31.17V7.973h4.284V31.17h-4.284zm12.68-28.922v5.725h2.927v3.86h-2.926v11.534c0 .721 0 1.654.17 2.418.169.763.508 1.4 1.187 1.4.339 0 .763-.043 1.06-.086.17-.042.34-.042.509-.085v4.199c-.212.042-.424.127-.636.17-.424.084-.976.127-1.654.127-2.502 0-3.69-1.273-4.284-2.884-.593-1.612-.636-3.562-.636-4.92V11.833h-2.163v-3.86h2.163V2.249h4.284zm4.03 25.445l5.894-15.819H90.5V7.973h9.5v3.477L94.105 27.27H100v3.901H89.567v-3.477z" fill="#FFF" fill-rule="evenodd"/></svg>